# xmcd
#
# Track frame offsets:
# 150
# 9455
# 22067
# 41652
# 56745
# 72332
# 81487
# 93685
# 108770
# 125150
# 138435
#
# Disc length: 1991 seconds
#
#
# Revision: 0
# Processed by: cddbd v1.5.1PL2 Copyright (c) Steve Scherf et al.
# Submitted via: FreeRIP 2.944 
#
DISCID=9e07c50b
DTITLE=les gilliam - western country
DYEAR=1900
DGENRE=western
TTITLE0=skyball paint
TTITLE1=streets of laredo
TTITLE2=cool water
TTITLE3=all around cowboy
TTITLE4=the blizzard
TTITLE5=the everlasting hills of oklahoma
TTITLE6=foolish questions
TTITLE7=an old dream
TTITLE8=that silver haired daddy of mine
TTITLE9=old country church
TTITLE10=whats right with america
EXTD=
EXTT0=
EXTT1=
EXTT2=
EXTT3=
EXTT4=
EXTT5=
EXTT6=
EXTT7=
EXTT8=
EXTT9=
EXTT10=
PLAYORDER=
